<?xml version="1.0" encoding="UTF-8"?>
<!DOCTYPE svg PUBLIC "-//W3C//DTD SVG 1.1//EN" "http://www.w3.org/Graphics/SVG/1.1/DTD/svg11.dtd">
<svg version="1.2" xmlns="http://www.w3.org/2000/svg" xmlns:xlink="http://www.w3.org/1999/xlink" x="0" y="0" width="383" height="203" viewBox="0 0 383 203">
<style type="text/css"><![CDATA[
text { font:12px Dialog; }
]]></style>
<rect x="-1056" y="-1058" width="2706" height="2346" style="fill:rgb(255,255,255);stroke:none" />
<clipPath id="clip1"><path d="M15,15 L368,15 L368,188 L15,188 Z M16,59 L16,116 L156,116 L156,59 Z M16,59" /></clipPath>
<path d="M166,117 L166,55 C166,50.5839996 169.5839996,47 174,47 L190,47" style="fill:none;stroke:rgb(128,128,128)" clip-path="url(#clip1)" />
<clipPath id="clip2"><path d="M15,15 L368,15 L368,188 L15,188 Z M16,59 L16,116 L156,116 L156,59 Z M16,59" /></clipPath>
<path d="M166,117 L166,98 C166,93.5839996 169.5839996,90 174,90 L190,90" style="fill:none;stroke:rgb(128,128,128)" clip-path="url(#clip2)" />
<clipPath id="clip3"><path d="M15,15 L368,15 L368,188 L15,188 Z M16,59 L16,116 L156,116 L156,59 Z M16,59" /></clipPath>
<path d="M166,117 L166,136 C166,140.4160004 169.5839996,144 174,144 L190,144" style="fill:none;stroke:rgb(128,128,128)" clip-path="url(#clip3)" />
<clipPath id="clip4"><path d="M15,15 L368,15 L368,188 L15,188 Z M16,59 L16,116 L156,116 L156,59 Z M16,59" /></clipPath>
<path d="M166,117 L166,179 C166,183.4160004 169.5839996,187 174,187 L190,187" style="fill:none;stroke:rgb(128,128,128)" clip-path="url(#clip4)" />
<clipPath id="clip5"><path d="M14,14 L369,14 L369,189 L14,189 L14,14 Z" /></clipPath>
<path d="M156,117 L166,117" style="fill:none;stroke:rgb(128,128,128)" clip-path="url(#clip5)" />
<clipPath id="clip6"><path d="M14,57 L159,57 L159,119 L14,119 L14,57 Z" /></clipPath>
<path d="M16,117 L156,117 Z M16,117" style="fill:none;stroke:rgb(128,128,128)" clip-path="url(#clip6)" />
<clipPath id="clip7"><path d="M66,73 L127,73 L127,103 L66,103 L66,73 Z" /></clipPath>
<path d="M81.6949997,83.9860001 L83.9449997,83.9860001 C83.8549957,86.0739975 83.4950027,87.9280014 82.8649979,89.5299988 C82.2529984,88.197998 81.7669983,86.6679993 81.3710022,84.9400024 C81.4789963,84.6340027 81.586998,84.3099976 81.6949997,83.9860001 Z M81.9290009,91.3840027 C81.0650024,92.7519989 79.913002,93.8679962 78.4729996,94.7320023 L79.4990005,96.3519974 C80.8669968,95.4519958 82.0009995,94.3720016 82.9189987,93.0759964 C83.8010025,94.4079971 84.8269958,95.487999 85.9789963,96.2799988 L87.0410004,94.7139969 C85.8170013,93.9219971 84.7730026,92.8420029 83.8909988,91.4380035 C84.9530029,89.3860016 85.5469971,86.9020004 85.6549988,83.9860001 L86.5370026,83.9860001 L86.5370026,82.2040024 L82.1449966,82.2040024 C82.2890015,81.4840012 82.4329987,80.7460022 82.5589981,79.9720001 L80.7590027,79.6480026 C80.4710007,81.7720032 80.0209961,83.6259995 79.3909988,85.2099991 L79.3909988,84.2559967 L77.6269989,84.2559967 L77.6269989,82.9059982 L79.1389999,82.9059982 L79.1389999,81.25 L77.6269989,81.25 L77.6269989,79.6660004 L75.8990021,79.6660004 L75.8990021,81.25 L73.9550018,81.25 L73.9550018,79.6839981 L72.2269974,79.6839981 L72.2269974,81.25 L70.6969986,81.25 L70.6969986,82.9059982 L72.2269974,82.9059982 L72.2269974,84.2559967 L70.427002,84.2559967 L70.427002,85.947998 L79.0670013,85.947998 C78.8689957,86.3980026 78.6350021,86.8300018 78.3829956,87.2259979 L78.3829956,86.6679993 L71.4889984,86.6679993 L71.4889984,96.2440033 L73.2890015,96.2440033 L73.2890015,93.2559967 L76.6009979,93.2559967 L76.6009979,94.0479965 C76.6009979,94.4260025 76.4029999,94.6240005 76.0250015,94.6240005 L74.5849991,94.5699997 L75.0530014,96.2259979 L76.5830002,96.2259979 C77.7709961,96.2259979 78.3829956,95.6319962 78.3829956,94.4440002 L78.3829956,87.2799988 L79.5169983,88.6839981 C79.8050003,88.2699966 80.0749969,87.8199997 80.3450012,87.3160019 C80.7770004,88.8099976 81.3170013,90.159996 81.9290009,91.3840027 Z M73.9550018,84.2559967 L73.9550018,82.9059982 L75.8990021,82.9059982 L75.8990021,84.2559967 Z M73.2890015,90.7900009 L76.6009979,90.7900009 L76.6009979,91.7080002 L73.2890015,91.7080002 Z M76.6009979,89.2419968 L73.2890015,89.2419968 L73.2890015,88.3059998 L76.6009979,88.3059998 Z M102.0889969,96.1360016 C103.5289993,96.1360016 104.2669983,95.3799973 104.2669983,93.8860016 L104.2669983,79.7740021 L102.3949966,79.7740021 L102.3949966,93.4179993 C102.3949966,94.1019974 102.0709991,94.461998 101.4229965,94.461998 C100.7569962,94.461998 100.0370026,94.4260025 99.2809982,94.3539963 L99.7129974,96.1360016 Z M98.560997,81.1419983 L98.560997,92.4100037 L100.3970032,92.4100037 L100.3970032,81.1419983 Z M88.6969986,80.2060013 L88.6969986,82.0419998 L91.2529984,82.0419998 C90.8570023,84.7060013 89.8669968,86.7939987 88.2470016,88.3420029 L89.1650009,90.1060028 C89.5970001,89.7099991 89.9929962,89.2600021 90.3710022,88.7919998 C91.3970032,89.3499985 92.3150024,89.9440002 93.125,90.5739975 C92.0090027,92.2480011 90.4970016,93.5439987 88.5709991,94.4799957 L89.4889984,96.1539993 C93.6289978,94.173996 96.0589981,90.6640015 96.8150024,85.6060028 L96.8150024,83.9499969 L92.6930008,83.9499969 C92.8549957,83.3379974 92.9810028,82.7080002 93.0889969,82.0419998 L97.6070023,82.0419998 L97.6070023,80.2060013 Z M91.3249969,87.3700027 C91.612999,86.8659973 91.8829956,86.3079987 92.1350021,85.7139969 L95.0510025,85.7139969 C94.798996,86.9199982 94.4389954,88.0360031 93.9710007,89.0439987 C93.1969986,88.4680023 92.3150024,87.909996 91.3249969,87.3700027 Z M107.2549973,81.0159988 L107.2549973,82.7440033 L113.5370026,82.7440033 L113.5370026,83.9140015 L108.298996,83.9140015 L108.298996,85.6419983 L113.5370026,85.6419983 L113.5370026,86.8119965 L106.625,86.8119965 L106.625,88.5220032 L111.9710007,88.5220032 C110.6930008,89.8539963 108.7490005,90.9519958 106.1210022,91.8339996 L107.1289978,93.4720001 C108.137001,93.0400009 109.072998,92.5899963 109.9369965,92.0859985 L109.9369965,93.7959976 C109.9369965,94.2099991 109.6849976,94.5159988 109.1809998,94.7320023 L109.7929993,96.3339996 C111.8089981,95.8479996 113.7890015,95.2360001 115.7509995,94.4799957 L115.3730011,92.7519989 C114.1849976,93.2200012 112.9790039,93.6520004 111.772995,94.0299988 L111.772995,90.8259964 C112.6549988,90.1060028 113.3929977,89.3499985 113.9869995,88.5220032 L114.3649979,88.5220032 C115.8949966,92.3199997 118.2890015,94.8939972 121.5469971,96.2440033 L122.572998,94.5879974 C121.0610046,94.0299988 119.7649994,93.237999 118.6669998,92.1940002 C119.6750031,91.7080002 120.6110001,91.0419998 121.4570007,90.2139969 L120.1609955,88.9540024 C119.3509979,89.8539963 118.4869995,90.5559998 117.586998,91.0240021 C116.9929962,90.2679977 116.4889984,89.4400024 116.0749969,88.5220032 L122.3569946,88.5220032 L122.3569946,86.8119965 L115.4449997,86.8119965 L115.4449997,85.6419983 L120.6829987,85.6419983 L120.6829987,83.9140015 L115.4449997,83.9140015 L115.4449997,82.7440033 L121.7269974,82.7440033 L121.7269974,81.0159988 L115.4449997,81.0159988 L115.4449997,79.6839981 L113.5370026,79.6839981 L113.5370026,81.0159988 Z M123.4909973,94.4260025" style="fill:rgb(76,76,76);stroke:none" clip-path="url(#clip7)" />
<clipPath id="clip8"><path d="M46,78 L66,78 L66,98 L46,98 L46,78 Z" /></clipPath>
<path d="M55.9999771,93.3553238 L50.7099113,96.1364746 L51.7202225,90.2458954 L47.4404678,86.0741653 L53.3549423,85.2147446 L55.9999771,79.8553238 L58.6450119,85.2147446 L64.5594864,86.0741653 L60.2797318,90.2458954 L61.2900467,96.1364746 L55.9999771,93.3553238" style="fill:rgb(238,67,47);stroke:none" clip-path="url(#clip8)" />
<clipPath id="clip9"><path d="M46,78 L66,78 L66,98 L46,98 L46,78 Z" /></clipPath>
<path d="M55.9999771,93.3553238 L50.7099113,96.1364746 L51.7202225,90.2458954 L47.4404678,86.0741653 L53.3549423,85.2147446 L55.9999771,79.8553238 L58.6450119,85.2147446 L64.5594864,86.0741653 L60.2797318,90.2458954 L61.2900467,96.1364746 L55.9999771,93.3553238" style="fill:rgb(239,83,80);stroke:none" clip-path="url(#clip9)" />
<clipPath id="clip10"><path d="M188,14 L274,14 L274,49 L188,49 L188,14 Z" /></clipPath>
<path d="M190,47 L271,47 Z M190,47" style="fill:none;stroke:rgb(128,128,128)" clip-path="url(#clip10)" />
<clipPath id="clip11"><path d="M201,22 L261,22 L261,41 L201,41 L201,22 Z" /></clipPath>
<path d="M212.6445007,28.4319992 L214.6074982,28.4319992 C214.5554962,30.2519989 214.2174988,31.8250008 213.5935059,33.1769981 C213.0735016,32.1240005 212.6445007,30.8889999 212.3065033,29.4589996 C212.4234924,29.1339989 212.5404968,28.7960014 212.6445007,28.4319992 Z M213.1255035,34.0740013 C212.4754944,35.1399994 211.6044922,36.0110016 210.5125122,36.6870003 L211.0195007,37.4799995 C212.0725098,36.7779999 212.943512,35.9329987 213.6195068,34.9189987 C214.2955017,35.9850006 215.1015015,36.829998 216.0505066,37.4539986 L216.5834961,36.6739998 C215.6215057,36.0760002 214.8025055,35.204998 214.1135101,34.086998 C214.9454956,32.5400009 215.3874969,30.6549988 215.4524994,28.4319992 L216.2845001,28.4319992 L216.2845001,27.5349998 L212.865509,27.5349998 C212.9955139,26.9500008 213.1125031,26.3260002 213.2164917,25.6629982 L212.3065033,25.507 C211.9945068,27.9379997 211.3835144,29.875 210.4865112,31.3050003 L211.0455017,32.007 C211.3055115,31.6170006 211.565506,31.1749992 211.7994995,30.6940002 C212.1635132,31.954998 212.6054993,33.0859985 213.1255035,34.0740013 Z M204.8964996,26.8330002 L204.8964996,27.6650009 L206.1445007,27.6650009 L206.1445007,29.0169983 L204.7015076,29.0169983 L204.7015076,29.875 L211.0715027,29.875 L211.0715027,29.0169983 L209.6545105,29.0169983 L209.6545105,27.6650009 L210.8894958,27.6650009 L210.8894958,26.8330002 L209.6545105,26.8330002 L209.6545105,25.507 L208.7965088,25.507 L208.7965088,26.8330002 L207.0025024,26.8330002 L207.0025024,25.5200005 L206.1445007,25.5200005 L206.1445007,26.8330002 Z M207.0025024,29.0169983 L207.0025024,27.6650009 L208.7965088,27.6650009 L208.7965088,29.0169983 Z M206.4955139,33.3979988 L209.3164978,33.3979988 L209.3164978,34.4249992 L206.4955139,34.4249992 Z M209.3164978,32.6049995 L206.4955139,32.6049995 L206.4955139,31.5390015 L209.3164978,31.5390015 Z M206.4955139,35.204998 L209.3164978,35.204998 L209.3164978,36.1150017 C209.3164978,36.4399986 209.1604919,36.6090012 208.8485107,36.6090012 L207.7304993,36.5699997 L207.9645081,37.4150009 L209.1215057,37.4150009 C209.8495026,37.4150009 210.213501,37.0379982 210.213501,36.3100014 L210.213501,30.7070007 L205.5985107,30.7070007 L205.5985107,37.4539986 L206.4955139,37.4539986 Z M227.815506,37.3499985 C228.6995087,37.3499985 229.14151,36.882 229.14151,35.9720001 L229.14151,25.637001 L228.2055054,25.637001 L228.2055054,35.7509995 C228.2055054,36.2579994 227.9584961,36.5180016 227.490509,36.5180016 C226.9705048,36.5180016 226.411499,36.4920006 225.8395081,36.4529991 L226.0475006,37.3499985 Z M225.4365082,26.625 L225.4365082,34.8409996 L226.3464966,34.8409996 L226.3464966,26.625 Z M218.1695099,26.1049995 L218.1695099,27.0149994 L220.1845093,27.0149994 C219.911499,29.1469994 219.1315002,30.8110008 217.8574982,32.0330009 L218.2994995,32.9039993 C218.6504974,32.5789986 218.9755096,32.2150002 219.2745056,31.8250008 C220.1325073,32.2929993 220.8865051,32.7999992 221.5494995,33.3460007 C220.7174988,34.697998 219.5605011,35.7509995 218.091507,36.5050011 L218.5465088,37.336998 C221.4325104,35.868 223.2005005,33.2939987 223.8375092,29.6279984 L223.8375092,28.7960014 L220.7434998,28.7960014 C220.8995056,28.2369995 221.01651,27.6389999 221.1074982,27.0149994 L224.4745026,27.0149994 L224.4745026,26.1049995 Z M219.7425079,31.1100006 C220.0025024,30.6679993 220.236496,30.2000008 220.4445038,29.6800003 L222.940506,29.6800003 C222.7324982,30.7330017 222.4075012,31.6949997 221.9785004,32.5659981 C221.3285065,32.0589981 220.5875092,31.5779991 219.7425079,31.1100006 Z M233.236496,34.5810013 C234.4844971,33.7879982 235.6545105,32.8650017 236.7595062,31.8120003 L236.7595062,33.8269997 C236.7595062,34.243 236.5774994,34.4510002 236.2265015,34.4510002 C235.8365021,34.4510002 235.4725037,34.4379997 235.1475067,34.4249992 L235.3815002,35.2960014 L236.5644989,35.2960014 C237.26651,35.2960014 237.6305084,34.9059982 237.6305084,34.1520004 L237.6305084,31.9679985 C238.4235077,32.5789986 239.385498,33.4239998 240.51651,34.5159988 L241.0625,33.6969986 C239.8925018,32.6959991 238.7485046,31.8120003 237.6305084,31.0320015 L237.6305084,29.0429993 C238.9045105,28.3409996 240.0615082,27.6389999 241.1015015,26.9239998 L241.1015015,26.0400009 L233.0545044,26.0400009 L233.0545044,26.9239998 L239.6975098,26.9239998 C239.0475006,27.3400002 238.0725098,27.8730011 236.7595062,28.5229988 L236.7595062,30.7459984 C235.5375061,31.9160004 234.263504,32.8909988 232.911499,33.6710014 Z M241.3225098,28.4059982 L241.3225098,35.9070015 L232.664505,35.9070015 L232.664505,28.3930016 L231.7675018,28.3930016 L231.7675018,37.4799995 L232.664505,37.4799995 L232.664505,36.7649994 L241.3225098,36.7649994 L241.3225098,37.493 L242.2194977,37.493 L242.2194977,28.4059982 Z M234.0684967,28.8089981 L233.3795013,29.237999 C234.1334991,29.9529991 234.7445068,30.6030006 235.1865082,31.2010002 L235.9015045,30.7070007 C235.4725037,30.1609993 234.861496,29.5369987 234.0684967,28.8089981 Z M239.9835052,28.7179985 C239.489502,29.5110016 238.89151,30.2000008 238.2154999,30.7719994 L238.89151,31.2529984 C239.5935059,30.6419983 240.2174988,29.9140015 240.7375031,29.0820007 Z M252.3075104,28.4319992 L254.2315063,28.4319992 C254.1795044,30.1870003 253.9065094,31.7210007 253.3995056,33.0340004 C252.8795013,31.9420013 252.463501,30.6290016 252.138504,29.1080017 Z M252.9705048,33.9700012 C252.3724976,35.0750008 251.5794983,35.9720001 250.565506,36.6739998 L251.0465088,37.4539986 C252.0214996,36.7519989 252.8274994,35.8810005 253.4515076,34.8409996 C254.1015015,35.9329987 254.8815002,36.8170013 255.7915039,37.4669991 L256.2985229,36.7000008 C255.3625031,36.0629997 254.5695038,35.1660004 253.8935089,33.9959984 C254.6215057,32.461998 255.0245056,30.6030006 255.0895081,28.4319992 L255.9345093,28.4319992 L255.9345093,27.5349998 L252.5025024,27.5349998 C252.6065063,26.9630013 252.7105103,26.3390007 252.7884979,25.6759987 L251.8785095,25.5200005 C251.6184998,27.9900017 251.0985107,29.9529991 250.3314972,31.4090004 L250.9165039,32.1240005 C251.1894989,31.6559982 251.4495087,31.1230011 251.6835022,30.5250015 C252.0345001,31.8250008 252.463501,32.968998 252.9705048,33.9700012 Z M246.8085022,31.5909996 C246.7174988,31.8509979 246.6135101,32.1240005 246.4965057,32.4099998 L244.5985107,32.4099998 L244.5985107,33.2290001 L246.1325073,33.2290001 C245.8724976,33.7490005 245.5735016,34.2820015 245.2355042,34.8540001 C245.8724976,35.0880013 246.4705048,35.3349991 247.0424957,35.5820007 C246.2884979,36.0110016 245.365509,36.3619995 244.2994995,36.6479988 L244.7415009,37.4280014 C246.0415039,37.0639992 247.1204987,36.5830002 247.9785004,35.9850006 C248.7454987,36.322998 249.4085083,36.6739998 249.9804993,37.012001 L250.4875031,36.2840004 C249.9154968,35.9720001 249.3175049,35.6860008 248.6934967,35.4000015 C249.3695068,34.776001 249.8505096,34.0349998 250.1365051,33.1769981 L250.1365051,32.4099998 L247.4195099,32.4099998 C247.4974976,32.1759987 247.588501,31.9420013 247.6795044,31.6949997 Z M247.8355103,35.0359993 C247.3675079,34.8409996 246.8735046,34.6590004 246.3535004,34.4770012 C246.6135101,34.086998 246.8475037,33.6710014 247.0554962,33.2290001 L249.2915039,33.2290001 C248.9795074,33.9049988 248.4855042,34.5159988 247.8355103,35.0359993 Z M245.6255035,25.7929993 L244.8845062,26.0400009 C245.1965027,26.5340004 245.4824982,27.0929985 245.7555084,27.7299995 L246.4315033,27.4179993 C246.1975098,26.8460007 245.9375,26.2999992 245.6255035,25.7929993 Z M249.5774994,25.7540016 C249.3435059,26.2999992 249.0055084,26.8460007 248.5895081,27.4049988 L249.2525024,27.743 C249.6685028,27.1969986 249.9934998,26.6380005 250.2535095,26.0659981 Z M244.6244965,28.0419998 L244.6244965,28.8610001 L246.4705048,28.8610001 C246.0805054,29.5760002 245.3785095,30.2259979 244.3775024,30.8110008 L244.8325043,31.5649986 C245.9505005,30.8110008 246.7304993,29.9269981 247.1595001,28.9000015 L247.1595001,31.3699989 L248.0305023,31.3699989 L248.0305023,29.6800003 C248.4985046,29.9920006 249.0575104,30.4080009 249.7075043,30.9280014 L250.1885071,30.2000008 C249.4605103,29.7579994 248.7324982,29.3549995 248.0305023,29.0040016 L248.0305023,28.8610001 L250.3964996,28.8610001 L250.3964996,28.0419998 L248.0305023,28.0419998 L248.0305023,25.5589981 L247.1595001,25.5589981 L247.1595001,28.0419998 Z M256.7535095,36.1669998" style="fill:rgb(48,48,48);stroke:none" clip-path="url(#clip11)" />
<clipPath id="clip12"><path d="M189,58 L368,58 L368,102 L189,102 Z M190,59 L190,89 L271,89 L271,59 Z M190,59" /></clipPath>
<path d="M284,90 L284,80 L293,80" style="fill:none;stroke:rgb(128,128,128)" clip-path="url(#clip12)" />
<clipPath id="clip13"><path d="M189,58 L368,58 L368,102 L189,102 Z M190,59 L190,89 L271,89 L271,59 Z M190,59" /></clipPath>
<path d="M284,90 L284,101 L293,101" style="fill:none;stroke:rgb(128,128,128)" clip-path="url(#clip13)" />
<clipPath id="clip14"><path d="M188,57 L369,57 L369,103 L188,103 L188,57 Z" /></clipPath>
<path d="M271,90 L284,90" style="fill:none;stroke:rgb(128,128,128)" clip-path="url(#clip14)" />
<clipPath id="clip15"><path d="M188,57 L274,57 L274,92 L188,92 L188,57 Z" /></clipPath>
<path d="M190,90 L271,90 Z M190,90" style="fill:none;stroke:rgb(128,128,128)" clip-path="url(#clip15)" />
<clipPath id="clip16"><path d="M201,65 L261,65 L261,84 L201,84 L201,65 Z" /></clipPath>
<path d="M205.4750061,68.9749985 L204.6820068,69.4690018 C205.5140076,70.5739975 206.1640015,71.5749969 206.6579895,72.4850006 L207.4379883,71.9389954 C206.9700012,71.0940018 206.3200073,70.1060028 205.4750061,68.9749985 Z M206.7099915,74.3699951 C206.1380005,76.2030029 205.4620056,77.9970016 204.6950073,79.7519989 L205.5789948,80.1419983 C206.3070068,78.4389954 206.9700012,76.6319962 207.5679932,74.7080002 Z M211.7279968,68.5849991 L211.7279968,70.8470001 L208.4389954,70.8470001 L208.4389954,76.762001 L209.348999,76.762001 L209.348999,76.098999 L211.7279968,76.098999 L211.7279968,80.4799957 L212.6900024,80.4799957 L212.6900024,76.098999 L215.0950012,76.098999 L215.0950012,76.762001 L216.0050049,76.762001 L216.0050049,70.8470001 L212.6900024,70.8470001 L212.6900024,68.5849991 Z M209.348999,75.2279968 L209.348999,71.7310028 L211.7279968,71.7310028 L211.7279968,75.2279968 Z M212.6900024,75.2279968 L212.6900024,71.7310028 L215.0950012,71.7310028 L215.0950012,75.2279968 Z M224.8970032,71.1459961 L224.4420013,71.8349991 C225.871994,72.4589996 227.276001,73.3170013 228.6539917,74.3959961 L229.147995,73.6419983 C227.8609924,72.6669998 226.4440002,71.8349991 224.8970032,71.1459961 Z M222.673996,71.1069946 C221.5429993,72.0820007 220.1129913,72.8619995 218.3710022,73.4469986 L218.7740021,74.3050003 C220.5679932,73.6289978 222.0500031,72.7709961 223.2330017,71.7440033 Z M225.7160034,73.3949966 L225.0399933,73.8239975 C225.598999,74.3959961 226.0410004,74.9160004 226.3789978,75.3970032 L223.7789917,75.3970032 C223.9609985,74.7210007 224.0780029,73.9929962 224.1559906,73.1999969 L223.2200012,73.1220016 C223.1419983,73.9669952 222.9989929,74.7210007 222.7910004,75.3970032 L218.2149963,75.3970032 L218.2149963,76.2679977 L222.4660034,76.2679977 C222.2839966,76.6839981 222.0630035,77.0479965 221.8159943,77.3860016 C221.048996,78.3740005 219.8009949,79.1279984 218.0589905,79.6609955 L218.4360046,80.5319977 C220.4120026,79.9079971 221.7899933,79.0630035 222.5699921,77.9970016 C222.9339905,77.5029984 223.2330017,76.9179993 223.4929962,76.2679977 L223.5579987,76.2679977 C224.7669983,78.3219986 226.6519928,79.6999969 229.2129974,80.4280014 L229.7200012,79.6220016 C227.3540039,79.0240021 225.625,77.9059982 224.5330048,76.2679977 L229.3820038,76.2679977 L229.3820038,75.3970032 L226.4049988,75.3970032 L227.0809937,74.9290009 C226.7689972,74.4869995 226.3139954,73.9799957 225.7160034,73.3949966 Z M229.2519989,69.6640015 L224.2079926,69.6640015 C224.052002,69.2089996 223.8959961,68.8059998 223.7399902,68.4420013 L222.7649994,68.5979996 C222.9599915,68.9229965 223.1289978,69.2740021 223.2850037,69.6640015 L218.3190002,69.6640015 L218.3190002,72.0690002 L219.2290039,72.0690002 L219.2290039,70.5220032 L228.3419952,70.5220032 L228.3419952,71.913002 L229.2519989,71.913002 Z M238.2740021,75.5139999 L239.8079987,75.5139999 L239.8079987,77.0999985 L236.973999,77.0999985 L236.973999,77.9449997 L239.8079987,77.9449997 L239.8079987,80.4929962 L240.7180023,80.4929962 L240.7180023,77.9449997 L242.9279938,77.9449997 L242.9279938,77.0999985 L240.7180023,77.0999985 L240.7180023,75.5139999 L242.6549988,75.5139999 L242.6549988,74.6689987 L240.7180023,74.6689987 L240.7180023,73.4599991 L239.8079987,73.4599991 L239.8079987,74.6689987 L238.6119995,74.6689987 C238.6900024,74.3699951 238.7679901,74.0449982 238.845993,73.6940002 L238.0659943,73.5510025 C237.8710022,74.5910034 237.4940033,75.409996 236.9219971,76.0339966 L237.4680023,76.6969986 C237.7799988,76.3590012 238.0399933,75.9690018 238.2740021,75.5139999 Z M238.8069916,70.1449966 C238.7160034,70.5739975 238.572998,70.951004 238.3779907,71.2890015 C238.0919952,71.7570038 237.6499939,72.1729965 237.0650024,72.5110016 L237.6109924,73.2259979 C238.2740021,72.7839966 238.7809906,72.2770004 239.1190033,71.7310028 C239.3659973,71.276001 239.5610046,70.7429962 239.6909943,70.1449966 L241.602005,70.1449966 C241.576004,71.0810013 241.5240021,71.6660004 241.4459991,71.887001 C241.3549957,72.1080017 241.1340027,72.2249985 240.7700043,72.237999 C240.470993,72.2249985 240.0939941,72.1989975 239.6519928,72.1729965 L239.8730011,72.9530029 C240.2890015,72.9789963 240.6529999,73.0049973 240.9649963,73.0049973 C241.5240021,73.0049973 241.9140015,72.822998 242.147995,72.4850006 C242.3820038,72.1340027 242.4989929,71.0810013 242.4989929,69.3130035 L237.0780029,69.3130035 L237.0780029,70.1449966 Z M232.6710052,74.8379974 L233.8540039,74.8379974 L233.8540039,76.5410004 L232.6580048,76.5410004 C232.6580048,76.4369965 232.6710052,76.3460007 232.6710052,76.2419968 Z M232.6190033,77.3339996 L233.8540039,77.3339996 L233.8540039,80.2720032 L234.6080017,80.2720032 L234.6080017,77.3339996 L235.8170013,77.3339996 L235.8170013,79.1409988 C235.8170013,79.4530029 235.673996,79.6220016 235.3880005,79.6220016 C235.1799927,79.6220016 234.9459991,79.5960007 234.6990051,79.5699997 L234.9199982,80.3499985 L235.6609955,80.3499985 C236.2850037,80.3499985 236.6100006,80.038002 236.6100006,79.427002 L236.6100006,71.6269989 L235.0500031,71.6269989 C235.3359985,71.223999 235.6349945,70.7299957 235.9210052,70.1579971 L235.9210052,69.5079956 L233.6069946,69.5079956 C233.7109985,69.2480011 233.8280029,68.961998 233.9319916,68.6759949 L233.0869904,68.4810028 C232.5800018,69.8330002 231.9429932,70.9250031 231.1629944,71.7570038 L231.7350006,72.4459991 C231.7740021,72.3939972 231.8130035,72.3549957 231.8649902,72.3030014 L231.8649902,76.2939987 C231.852005,77.776001 231.5919952,79.0110016 231.0979919,79.9729996 L231.7350006,80.5579987 C232.2030029,79.6999969 232.5019989,78.6210022 232.6190033,77.3339996 Z M234.1009979,71.6269989 L232.4109955,71.6269989 C232.696991,71.2109985 232.9830017,70.7689972 233.2429962,70.2750015 L234.9329987,70.2750015 C234.6470032,70.7819977 234.3739929,71.2369995 234.1009979,71.6269989 Z M235.8170013,76.5410004 L234.6080017,76.5410004 L234.6080017,74.8379974 L235.8170013,74.8379974 Z M235.8170013,74.0579987 L234.6080017,74.0579987 L234.6080017,72.4329987 L235.8170013,72.4329987 Z M233.8540039,72.4329987 L233.8540039,74.0579987 L232.6710052,74.0579987 L232.6710052,72.4329987 Z M248.4660034,70.4830017 L248.4660034,71.3799973 L251.0919952,71.3799973 L251.0919952,72.4589996 C251.0789948,73.1090012 251.0269928,73.7200012 250.9360046,74.3050003 L247.9329987,74.3050003 L247.9329987,75.1889954 L250.7409973,75.1889954 C250.1949921,77.2559967 248.946991,78.7509995 246.996994,79.6609955 L247.5950012,80.4410019 C249.6230011,79.401001 250.9619904,77.7630005 251.5859985,75.5270004 C252.4309998,77.4899979 253.7960052,79.1149979 255.6940002,80.4020004 L256.3179932,79.6869965 C254.4459991,78.5559998 253.0939941,77.060997 252.2619934,75.1889954 L256.1229858,75.1889954 L256.1229858,74.3050003 L254.9660034,74.3050003 L254.9660034,70.4830017 L251.9889984,70.4830017 L251.9889984,68.5459976 L251.0919952,68.5459976 L251.0919952,70.4830017 Z M251.9889984,71.3799973 L254.0559998,71.3799973 L254.0559998,74.3050003 L251.845993,74.3050003 C251.9369965,73.6549988 251.9889984,72.9789963 251.9889984,72.2509995 Z M245.2939911,68.9749985 L244.5269928,69.4560013 C245.371994,70.5739975 246.0350037,71.5749969 246.5289917,72.4850006 L247.2960052,71.9519958 C246.8280029,71.0940018 246.1649933,70.1060028 245.2939911,68.9749985 Z M246.6199951,74.3570023 C246.0090027,76.177002 245.2809906,77.9710007 244.4490051,79.7129974 L245.3329926,80.1029968 C246.1129913,78.413002 246.8150024,76.6060028 247.4389954,74.6819992 Z M256.8120117,79.1539993" style="fill:rgb(48,48,48);stroke:none" clip-path="url(#clip16)" />
<clipPath id="clip17"><path d="M291,60 L348,60 L348,82 L291,82 L291,60 Z" /></clipPath>
<path d="M293,80 L345,80 Z M293,80" style="fill:none;stroke:rgb(128,128,128)" clip-path="url(#clip17)" />
<clipPath id="clip18"><path d="M301,63 L338,63 L338,79 L301,79 L301,63 Z" /></clipPath>
<path d="M309.3800049,72.0400009 L309.3800049,72.6800003 L311.25,72.6800003 L311.25,74.3399963 L311.9199829,74.3399963 L311.9199829,72.6800003 L313.3699951,72.6800003 L313.3699951,72.0400009 L311.9199829,72.0400009 L311.9199829,70.8099976 L313.0899963,70.8099976 L313.0899963,70.1800003 L311.9199829,70.1800003 L311.9199829,68.8300018 L311.25,68.8300018 L311.25,70.1800003 L310.2200012,70.1800003 C310.5299988,69.5999985 310.8099976,68.9199982 311.0700073,68.1600037 L313.1799927,68.1600037 L313.1799927,67.5299988 L311.2700195,67.5299988 C311.3599854,67.2200012 311.4500122,66.8899994 311.5299988,66.5500031 L310.8900146,66.4000015 C310.7900085,66.7900009 310.6900024,67.1699982 310.5899963,67.5299988 L309.4000244,67.5299988 L309.4000244,68.1600037 L310.4000244,68.1600037 C310.1199951,68.9799957 309.8099976,69.6600037 309.4700012,70.2099991 L309.6099854,70.8099976 L311.25,70.8099976 L311.25,72.0400009 Z M307.9799805,66.6100006 L307.4500122,66.9400024 C307.8900146,67.5299988 308.2399902,68.0699997 308.5,68.5699997 L309.0400085,68.1900024 C308.7999878,67.7399979 308.4400024,67.2099991 307.9799805,66.6100006 Z M311.9400024,74.7399979 C311.5599976,74.7399979 311.1799927,74.7299957 310.7999878,74.7200012 C310.4100037,74.6999969 310.0700073,74.6299973 309.7900085,74.5199966 C309.4799805,74.3700027 309.2200012,74.1699982 309.0200195,73.9100037 C308.9899902,73.8700027 308.9500122,73.8399963 308.9100037,73.8000031 L308.9100037,69.7600021 L307.4400024,69.7600021 L307.4400024,70.4000015 L308.25,70.4000015 L308.25,73.7699966 C307.9700012,73.9400024 307.6199951,74.3499985 307.2000122,75.0100021 L307.6300049,75.5500031 C308.0700073,74.7600021 308.3800049,74.3700027 308.5499878,74.3700027 C308.6400146,74.3700027 308.75,74.4400024 308.8800049,74.5899963 C309.1199951,74.8700027 309.4100037,75.0800018 309.7600098,75.1999969 C310.1099854,75.3099976 310.5200195,75.3700027 310.9799805,75.3799973 C311.2799988,75.3899994 311.5899963,75.4000015 311.8900146,75.4000015 L313.2399902,75.4000015 L313.4299927,74.7200012 C312.960022,74.7299957 312.460022,74.7399979 311.9400024,74.7399979 Z M305.2999878,66.4300003 C305.0800171,67.6399994 304.710022,68.75 304.210022,69.75 L304.7799988,70.1100006 C305.0700073,69.5500031 305.3300171,68.9199982 305.5499878,68.2299957 L307.2700195,68.2299957 L307.2700195,67.5500031 L305.7600098,67.5500031 C305.8399963,67.2299957 305.9199829,66.9100037 305.9899902,66.5699997 Z M305.0800171,69.5400009 L305.0800171,70.1900024 L305.5899963,70.1900024 L305.5899963,71.4400024 L304.4799805,71.4400024 L304.4799805,72.1100006 L305.5899963,72.1100006 L305.5899963,74.4199982 C305.5899963,74.5599976 305.5100098,74.6699982 305.3599854,74.7399979 L305.6300049,75.3399963 C306.25,75.1200027 306.7900085,74.8300018 307.2700195,74.4899979 L307.1500244,73.8700027 C306.8500061,74.1100006 306.5599976,74.3000031 306.2799988,74.4400024 L306.2799988,72.1100006 L307.3800049,72.1100006 L307.3800049,71.4400024 L306.2799988,71.4400024 L306.2799988,70.1900024 L307.1000061,70.1900024 L307.1000061,69.5400009 Z M315.0899963,67.2700043 L315.0899963,67.9300003 L318.6799927,67.9300003 L318.6799927,68.8799973 L315.6699829,68.8799973 L315.6699829,69.5400009 L318.6799927,69.5400009 L318.6799927,70.4899979 L314.7399902,70.4899979 L314.7399902,71.1399994 L317.9500122,71.1399994 C317.210022,72.0100021 316.0499878,72.7200012 314.4500122,73.2799988 L314.8300171,73.9000015 C315.5100098,73.6299973 316.1099854,73.3300018 316.6500244,73 L316.6500244,74.5699997 C316.6500244,74.7299957 316.5400085,74.8499985 316.3300171,74.9300003 L316.5700073,75.5500031 C317.6400146,75.2900009 318.6900024,74.9499969 319.7299805,74.5299988 L319.5899963,73.8600006 C318.8500061,74.1600037 318.1099854,74.4300003 317.3599854,74.6500015 L317.3599854,72.5199966 C317.9100037,72.0999985 318.3599854,71.6399994 318.710022,71.1399994 L319.0599976,71.1399994 C319.9000244,73.3099976 321.2600098,74.7699966 323.1199951,75.5199966 L323.5,74.8899994 C322.5700073,74.5400009 321.7700195,74.0100021 321.1099854,73.3099976 C321.75,73.0299988 322.3200073,72.6299973 322.8300171,72.1200027 L322.3300171,71.6399994 C321.8099976,72.1900024 321.2700195,72.5899963 320.710022,72.8499985 C320.3200073,72.3499985 319.9899902,71.7799988 319.7200012,71.1399994 L323.3599854,71.1399994 L323.3599854,70.4899979 L319.4199829,70.4899979 L319.4199829,69.5400009 L322.4299927,69.5400009 L322.4299927,68.8799973 L319.4199829,68.8799973 L319.4199829,67.9300003 L323.0100098,67.9300003 L323.0100098,67.2700043 L319.4199829,67.2700043 L319.4199829,66.4199982 L318.6799927,66.4199982 L318.6799927,67.2700043 Z M330.0899963,66.4000015 L330.0899963,68.0100021 L327.7200012,68.0100021 L327.7200012,68.7099991 L330.0899963,68.7099991 L330.0899963,70.5800018 L327.2399902,70.5800018 L327.2399902,71.2799988 L329.6099854,71.2799988 C328.8500061,73.0699997 328.2299805,74.1699982 327.7600098,74.5800018 C327.7200012,74.5999985 327.6699829,74.6299973 327.6099854,74.6500015 L327.7799988,75.2799988 C329.5499878,75.1100006 331.1900024,74.8799973 332.7000122,74.5999985 C332.8399963,74.9199982 332.9700012,75.25 333.1099854,75.5999985 L333.7900085,75.3000031 C333.3399963,74.1600037 332.8099976,73.0800018 332.210022,72.0800018 L331.5200195,72.3099976 C331.8200073,72.8099976 332.1199951,73.3600006 332.4100037,73.9599991 C331.1699829,74.1999969 329.9400024,74.3899994 328.710022,74.5199966 C329.1900024,73.8899994 329.75,72.8099976 330.3900146,71.2799988 L333.6699829,71.2799988 L333.6699829,70.5800018 L330.8300171,70.5800018 L330.8300171,68.7099991 L333.4000244,68.7099991 L333.4000244,68.0100021 L330.8300171,68.0100021 L330.8300171,66.4000015 Z M325.5499878,66.5599976 L325.0400085,67.0500031 C325.7399902,67.5800018 326.2799988,68.0800018 326.6799927,68.5599976 L327.1900024,68.0400009 C326.75,67.5400009 326.2000122,67.0500031 325.5499878,66.5599976 Z M325.3099976,68.9000015 L324.7999878,69.3899994 C325.4400024,69.9300003 325.9400024,70.4300003 326.2999878,70.9000015 L326.8200073,70.3899994 C326.4100037,69.8899994 325.9100037,69.3899994 325.3099976,68.9000015 Z M326.460022,71.6699982 C326.0400085,72.8700027 325.5299988,74.0400009 324.9500122,75.1800003 L325.6699829,75.4899979 C326.2000122,74.3799973 326.6799927,73.1900024 327.1099854,71.9300003 Z M334.2700195,74.5699997" style="fill:rgb(0,0,0);stroke:none" clip-path="url(#clip18)" />
<clipPath id="clip19"><path d="M291,81 L369,81 L369,103 L291,103 L291,81 Z" /></clipPath>
<path d="M293,101 L366,101 Z M293,101" style="fill:none;stroke:rgb(128,128,128)" clip-path="url(#clip19)" />
<clipPath id="clip20"><path d="M301,84 L359,84 L359,100 L301,100 L301,84 Z" /></clipPath>
<path d="M305.1300049,88.0400009 L305.1300049,88.7399979 L306.9500122,88.7399979 L306.9500122,91.0400009 C306.9500122,91.1399994 306.9400024,91.2600021 306.9400024,91.3899994 L304.5899963,91.3899994 L304.5899963,92.0800018 L306.8999939,92.0800018 C306.8200073,92.8799973 306.6799927,93.5599976 306.4700012,94.1399994 C306.1499939,94.9000015 305.5800171,95.5100021 304.769989,95.9700012 L305.1599731,96.5899963 C306.039978,96.1299973 306.6699829,95.4800034 307.0499878,94.6399994 C307.3499756,93.9599991 307.539978,93.1100006 307.6300049,92.0800018 L310.519989,92.0800018 L310.519989,96.5100021 L311.25,96.5100021 L311.25,92.0800018 L313.4400024,92.0800018 L313.4400024,91.3899994 L311.25,91.3899994 L311.25,88.7399979 L312.9199829,88.7399979 L312.9199829,88.0400009 Z M307.6900024,88.7399979 L310.519989,88.7399979 L310.519989,91.3899994 L307.6799927,91.3899994 C307.6799927,91.2799988 307.6900024,91.1600037 307.6900024,91.0400009 Z M319.6400146,91.1999969 C319.9599915,92.2300034 320.3499756,93.1399994 320.8200073,93.9400024 C320.2399902,94.75 319.4799805,95.4100037 318.519989,95.9300003 L318.9299927,96.5800018 C319.8699951,96.0400009 320.6300049,95.3700027 321.2299805,94.5699997 C321.8499756,95.4499969 322.5999756,96.1399994 323.4700012,96.6399994 L323.8800049,96.0299988 C323.019989,95.5500031 322.269989,94.8600006 321.6400146,93.9599991 C322.3599854,92.7699966 322.75,91.3300018 322.8099976,89.6500015 L323.5499878,89.6500015 L323.5499878,88.9599991 L320.5999756,88.9599991 C320.7299805,88.5199966 320.8399963,88.0400009 320.9299927,87.5299988 L320.2200012,87.4100037 C319.9400024,89.0999985 319.4099731,90.4499969 318.6300049,91.4499969 L319.0700073,91.9800034 C319.269989,91.7399979 319.4599915,91.4800034 319.6400146,91.1999969 Z M320.3800049,89.6500015 L322.1199951,89.6500015 C322.0700073,91.0500031 321.769989,92.2699966 321.2099915,93.3000031 C320.7399902,92.4899979 320.3499756,91.5400009 320.0499878,90.4400024 C320.1699829,90.1900024 320.2799988,89.9300003 320.3800049,89.6500015 Z M314.7799988,88.9499969 L314.7799988,89.6399994 L315.8200073,89.6399994 L315.8200073,90.5599976 C315.7999878,93.0999985 315.3900146,94.9499969 314.5700073,96.0999985 L315.1300049,96.5899963 C315.8699951,95.5299988 316.3099976,93.9300003 316.4500122,91.7900009 L317.7099915,91.7900009 C317.7000122,93.7699966 317.6599731,94.9599991 317.5899963,95.3399963 C317.519989,95.6699982 317.2999878,95.8399963 316.9400024,95.8399963 C316.7200012,95.8399963 316.4700012,95.8300018 316.1900024,95.8099976 L316.3499756,96.4300003 C316.6799927,96.4499969 316.9099731,96.4700012 317.039978,96.4700012 C317.75,96.4700012 318.1499939,96.1800003 318.25,95.6100006 C318.3399963,95.0500031 318.3900146,93.5599976 318.3900146,91.1299973 L316.4799805,91.1299973 C316.4799805,90.9499969 316.4899902,90.7600021 316.4899902,90.5599976 L316.4899902,89.6399994 L318.9199829,89.6399994 L318.9199829,88.9499969 L317.4199829,88.9499969 C317.2600098,88.4700012 317.0299988,87.9400024 316.75,87.3600006 L316.0499878,87.5599976 C316.289978,88.0100021 316.5100098,88.4700012 316.6900024,88.9499969 Z M326.4799805,89.4000015 L326.4799805,90.0299988 L331.8200073,90.0299988 L331.8200073,90.9499969 L326.0999756,90.9499969 L326.0999756,91.5999985 L332.5299988,91.5999985 L332.5299988,87.8399963 L326.2200012,87.8399963 L326.2200012,88.4899979 L331.8200073,88.4899979 L331.8200073,89.4000015 Z M325.0299988,92.5999985 L325.0299988,93.2900009 L331.0100098,93.2900009 L331.0100098,95.4700012 C331.0100098,95.75 330.8599854,95.8899994 330.5800171,95.8899994 C330.2000122,95.8899994 329.8099976,95.8700027 329.3999939,95.8499985 L329.5599976,96.5299988 L330.8200073,96.5299988 C331.4199829,96.5299988 331.7299805,96.2300034 331.7299805,95.6500015 L331.7299805,93.2900009 L333.8800049,93.2900009 L333.8800049,92.5999985 L331.7299805,92.5999985 L331.7299805,91.8700027 L331.0100098,91.8700027 L331.0100098,92.5999985 Z M327.25,93.6999969 L326.7600098,94.1699982 C327.4799805,94.7099991 328.0499878,95.2099991 328.4700012,95.6900024 L328.9799805,95.1800003 C328.519989,94.6900024 327.9400024,94.1999969 327.25,93.6999969 Z M341.2999878,87.4300003 L341.2999878,95.5100021 L339.7999878,95.5100021 L339.7999878,89.5500031 L339.0800171,89.5500031 L339.0800171,95.5100021 L337.9199829,95.5100021 L337.9199829,96.2099991 L344.2200012,96.2099991 L344.2200012,95.5100021 L342.0299988,95.5100021 L342.0299988,91.3199997 L343.9299927,91.3199997 L343.9299927,90.6299973 L342.0299988,90.6299973 L342.0299988,87.4300003 Z M338.4199829,93.6999969 C337.9799805,93.8600006 337.5299988,94 337.0700073,94.1299973 L337.0700073,90.7200012 L338.2999878,90.7200012 L338.2999878,90.0199966 L337.0700073,90.0199966 L337.0700073,87.4800034 L336.3300171,87.4800034 L336.3300171,90.0199966 L335.0800171,90.0199966 L335.0800171,90.7200012 L336.3300171,90.7200012 L336.3300171,94.3300018 C335.8900146,94.4300003 335.4400024,94.5199966 334.9799805,94.5999985 L335.1699829,95.3600006 C336.3300171,95.1200027 337.4199829,94.8099976 338.4199829,94.4499969 Z M350.7099915,87.4400024 L350.7099915,89.0500031 L348.3399963,89.0500031 L348.3399963,89.75 L350.7099915,89.75 L350.7099915,91.6200027 L347.8599854,91.6200027 L347.8599854,92.3199997 L350.2299805,92.3199997 C349.4700012,94.1100006 348.8500061,95.2099991 348.3800049,95.6200027 C348.3399963,95.6399994 348.2900085,95.6699982 348.2299805,95.6900024 L348.3999939,96.3199997 C350.1699829,96.1500015 351.8099976,95.9199982 353.3200073,95.6399994 C353.4599915,95.9599991 353.5899963,96.2900009 353.7299805,96.6399994 L354.4100037,96.3399963 C353.9599915,95.1999969 353.4299927,94.1200027 352.8299866,93.1200027 L352.1399841,93.3499985 C352.4400024,93.8499985 352.7399902,94.4000015 353.0299988,95 C351.7900085,95.2399979 350.5599976,95.4300003 349.3299866,95.5599976 C349.8099976,94.9300003 350.3699951,93.8499985 351.0100098,92.3199997 L354.2900085,92.3199997 L354.2900085,91.6200027 L351.4499817,91.6200027 L351.4499817,89.75 L354.019989,89.75 L354.019989,89.0500031 L351.4499817,89.0500031 L351.4499817,87.4400024 Z M346.1699829,87.5999985 L345.6600037,88.0899963 C346.3599854,88.6200027 346.8999939,89.1200027 347.2999878,89.5999985 L347.8099976,89.0800018 C347.3699951,88.5800018 346.8200073,88.0899963 346.1699829,87.5999985 Z M345.9299927,89.9400024 L345.4199829,90.4300003 C346.0599976,90.9700012 346.5599976,91.4700012 346.9199829,91.9400024 L347.4400024,91.4300003 C347.0299988,90.9300003 346.5299988,90.4300003 345.9299927,89.9400024 Z M347.0799866,92.7099991 C346.6600037,93.9100037 346.1499939,95.0800018 345.5700073,96.2200012 L346.2900085,96.5299988 C346.8200073,95.4199982 347.2999878,94.2300034 347.7299805,92.9700012 Z M354.8899841,95.6100006" style="fill:rgb(0,0,0);stroke:none" clip-path="url(#clip20)" />
<clipPath id="clip21"><path d="M188,111 L274,111 L274,146 L188,146 L188,111 Z" /></clipPath>
<path d="M190,144 L271,144 Z M190,144" style="fill:none;stroke:rgb(128,128,128)" clip-path="url(#clip21)" />
<clipPath id="clip22"><path d="M201,119 L261,119 L261,138 L201,138 L201,119 Z" /></clipPath>
<path d="M205.286499,123.4950027 L205.286499,124.3919983 L209.9924927,124.3919983 L209.9924927,123.4950027 Z M204.7795105,127.0050049 L204.7795105,127.9150009 L206.5865021,127.9150009 C205.9364929,130.2810059 205.4165039,131.723999 205.0265045,132.2570038 C204.9745026,132.2830048 204.9095001,132.3090057 204.818512,132.3350067 L205.0394897,133.2189941 C206.6515045,132.9329987 208.1595001,132.5429993 209.5375061,132.048996 C209.667511,132.3479919 209.7975006,132.6600037 209.9274902,132.9980011 L210.73349,132.5820007 C210.1875,131.2689972 209.6025085,130.0599976 208.9785004,128.9420013 L208.1855011,129.3320007 C208.5234985,129.9299927 208.8485107,130.5670013 209.1864929,131.2689972 C208.1725006,131.6459961 207.1455078,131.9450073 206.1184998,132.1529999 C206.5084991,131.2949982 206.963501,129.8910065 207.48349,127.9150009 L210.4865112,127.9150009 L210.4865112,127.0050049 Z M212.4364929,122.6240005 L212.4364929,125.25 L210.6815033,125.25 L210.6815033,126.1600037 L212.4364929,126.1600037 L212.4364929,126.3160019 C212.4104919,129.8130035 211.5784912,132.3479919 209.9534912,133.9210052 L210.6555023,134.5319977 C212.4234924,132.803009 213.3334961,130.0599976 213.3724976,126.3160019 L213.3724976,126.1600037 L215.2964935,126.1600037 C215.2705078,129.6569977 215.2185059,131.75 215.1405029,132.4389954 C215.036499,133.1799927 214.6595001,133.5570068 214.0225067,133.5570068 C213.6715088,133.5570068 213.2554932,133.5310059 212.7875061,133.5050049 L212.9954987,134.3370056 C213.5415039,134.3630066 213.9185028,134.3760071 214.1394958,134.3760071 C215.2575073,134.3760071 215.8945007,133.8430023 216.0245056,132.7900085 C216.1414948,131.8280029 216.2064972,129.3190002 216.2064972,125.25 L213.3724976,125.25 L213.3724976,122.6240005 Z M223.4085083,122.4680023 C223.3565063,122.9880066 223.2525024,123.4820023 223.1094971,123.9499969 L218.5205078,123.9499969 L218.5205078,124.8470001 L222.7845001,124.8470001 C222.5505066,125.3540039 222.2644958,125.8090057 221.9004974,126.1990051 C221.0814972,127.0570068 219.7425079,127.7330017 217.8964996,128.201004 L218.260498,129.0590057 C219.8204956,128.6430054 221.0424957,128.1230011 221.9004974,127.4860001 C222.5245056,127.9799957 223.1484985,128.5390015 223.7725067,129.1629944 L224.4225006,128.5130005 C223.7205048,127.8759995 223.0964966,127.3560028 222.5245056,126.9530029 C222.5635071,126.901001 222.6024933,126.8619995 222.6544952,126.8099976 C223.135498,126.2639999 223.5254974,125.6009979 223.8115082,124.8470001 L224.0065002,124.8470001 C224.6564941,126.6150055 226.411499,128.0059967 229.2975006,129.0200043 L229.7915039,128.2140045 C227.2044983,127.4080048 225.5924988,126.2900009 224.9555054,124.8470001 L229.1154938,124.8470001 L229.1154938,123.9499969 L224.0975037,123.9499969 C224.2015076,123.5079956 224.2924957,123.0530014 224.3444977,122.5590057 Z M219.2355042,130.151001 C218.9884949,131.3209991 218.585495,132.3869934 218.039505,133.348999 L218.8455048,133.8560028 C219.4044952,132.8679962 219.8464966,131.697998 220.1585083,130.3460083 Z M224.1625061,129.6829987 L223.3435059,129.9429932 C223.7595062,130.6060028 224.1365051,131.3730011 224.5005035,132.2440033 L225.3585052,131.8670044 C225.0205078,131.0870056 224.6175079,130.3590088 224.1625061,129.6829987 Z M228.0494995,129.9559937 L227.1524963,130.2420044 C227.763504,131.1650085 228.3224945,132.2310028 228.8294983,133.4530029 L229.6875,133.076004 C229.2194977,131.9580078 228.6735077,130.9179993 228.0494995,129.9559937 Z M225.6705017,134.2330017 C226.164505,134.2330017 226.5155029,134.1159973 226.7494965,133.8950043 C227.0095062,133.6350098 227.1914978,132.9329987 227.2825012,131.7630005 L226.3984985,131.477005 C226.3464966,132.3739929 226.2425079,132.9069977 226.0865021,133.0890045 C225.9694977,133.2449951 225.7745056,133.322998 225.5014954,133.322998 L222.6674957,133.322998 C222.2774963,133.322998 222.0955048,133.128006 222.0955048,132.7380066 L222.0955048,130.1119995 L221.1334991,130.1119995 L221.1334991,132.9329987 C221.1334991,133.7910004 221.536499,134.2330017 222.3684998,134.2330017 Z M235.5245056,127.7460022 C235.0565033,128.0059967 234.5755005,128.2400055 234.0814972,128.4609985 L234.0814972,125.8740005 L235.5245056,125.8740005 L235.5245056,124.977005 L234.0814972,124.977005 L234.0814972,122.6240005 L233.1325073,122.6240005 L233.1325073,124.977005 L231.3515015,124.977005 L231.3515015,125.8740005 L233.1325073,125.8740005 L233.1325073,128.8509979 C232.4954987,129.0850067 231.8455048,129.2799988 231.1694946,129.4490051 L231.4035034,130.3850098 C231.9884949,130.2030029 232.5605011,129.9949951 233.1325073,129.7740021 L233.1325073,132.9980011 C233.1325073,133.3619995 232.9505005,133.5440063 232.5995026,133.5440063 C232.2615051,133.5440063 231.9105072,133.5180054 231.5464935,133.4920044 L231.7545013,134.4020081 L232.9244995,134.4020081 C233.6914978,134.4020081 234.0814972,134.0119934 234.0814972,133.2319946 L234.0814972,129.3840027 C234.5755005,129.1759949 235.0565033,128.9420013 235.5245056,128.6950073 Z M239.6585083,122.5460052 L238.7225037,122.7019958 C238.9824982,123.2089996 239.2295074,123.7810059 239.4505005,124.4049988 L236.2915039,124.4049988 L236.2915039,128.1750031 C236.239502,130.5930023 235.6674957,132.4779968 234.588501,133.8430023 L235.3164978,134.5059967 C236.5384979,132.9199982 237.1755066,130.8009949 237.2274933,128.1750031 L237.2274933,125.3150024 L243.0514984,125.3150024 L243.0514984,124.4049988 L240.3995056,124.4049988 C240.1654968,123.7030029 239.9185028,123.0920029 239.6585083,122.5460052 Z M250.5525055,122.5200043 L249.5514984,122.689003 C249.7075043,122.9880066 249.8634949,123.3130035 250.0195007,123.677002 L245.0794983,123.677002 L245.0794983,126.0559998 L245.989502,126.0559998 L245.989502,124.5480042 L254.8034973,124.5480042 L254.8034973,125.9909973 L255.713501,125.9909973 L255.713501,123.677002 L250.9945068,123.677002 C250.8515015,123.2480011 250.7084961,122.8580017 250.5525055,122.5200043 Z M250.0585022,126.6800003 C248.7584991,128.1100006 246.9255066,129.2539978 244.5464935,130.1380005 L245.0404968,130.9049988 C245.5865021,130.6970062 246.1195068,130.4759979 246.6524963,130.2160034 L246.6524963,134.5189972 L247.5625,134.5189972 L247.5625,133.9729919 L253.3735046,133.9729919 L253.3735046,134.5189972 L254.2705078,134.5189972 L254.2705078,130.2680054 C254.7124939,130.4759979 255.1934967,130.6840057 255.713501,130.8919983 L256.22052,130.125 C253.6464996,129.1369934 251.8265076,127.9929962 250.7734985,126.6800003 Z M247.5625,133.1150055 L247.5625,131.0350037 L253.3735046,131.0350037 L253.3735046,133.1150055 Z M246.6784973,130.2030029 C248.1215057,129.4880066 249.3695068,128.5910034 250.4095001,127.4990005 C251.2935028,128.5130005 252.5415039,129.4230042 254.1275024,130.2030029 Z M251.9174957,125.0940018 L251.3195038,125.6790009 C252.9705048,126.5500031 254.2705078,127.3690033 255.2194977,128.1490021 L255.8695068,127.512001 C254.8034973,126.7060013 253.4774933,125.9000015 251.9174957,125.0940018 Z M248.8365021,125.0810013 C247.7445068,125.9909973 246.4185028,126.7709961 244.8325043,127.4470062 L245.3914948,128.1750031 C247.0034943,127.4470062 248.3554993,126.602005 249.460495,125.6399994 Z M256.8964844,133.2059937" style="fill:rgb(48,48,48);stroke:none" clip-path="url(#clip22)" />
<clipPath id="clip23"><path d="M188,154 L247,154 L247,189 L188,189 L188,154 Z" /></clipPath>
<path d="M190,187 L244,187 Z M190,187" style="fill:none;stroke:rgb(128,128,128)" clip-path="url(#clip23)" />
<clipPath id="clip24"><path d="M201,162 L234,162 L234,181 L201,181 L201,162 Z" /></clipPath>
<path d="M207.7310028,165.4875031 C207.0939941,167.5025024 206.0800018,169.2835083 204.7019958,170.8435059 L205.0010071,171.8444977 C205.5079956,171.3114929 205.9759979,170.7525024 206.4049988,170.1805115 L206.4049988,177.5124969 L207.3410034,177.5124969 L207.3410034,168.7505035 C207.8479919,167.8535004 208.2640076,166.9045105 208.6019897,165.8905029 Z M208.5370026,167.6585083 L208.5370026,168.5555115 L216.3630066,168.5555115 L216.3630066,167.6585083 L212.9700012,167.6585083 C212.7879944,166.8785095 212.5930023,166.1894989 212.3850098,165.5914917 L211.3970032,165.760498 C211.631012,166.3325043 211.8519897,166.9694977 212.0339966,167.6585083 Z M208.3160095,175.9524994 L208.3160095,176.8755035 L216.701004,176.8755035 L216.701004,175.9524994 L213.75,175.9524994 C214.3999939,174.1195068 214.9589996,172.013504 215.4140015,169.634491 L214.5169983,169.4004974 C214.022995,172.0264893 213.451004,174.2105103 212.7879944,175.9524994 Z M210.1360016,169.5435028 L209.2779999,169.8034973 C209.8240051,171.6495056 210.2789917,173.5605011 210.6300049,175.536499 L211.5010071,175.3024902 C211.0979919,173.1445007 210.6430054,171.2204895 210.1360016,169.5435028 Z M222.7460022,167.2554932 C222.3300018,168.2434998 221.5240021,169.088501 220.3410034,169.7904968 L220.8610077,170.4664917 C221.3549957,170.1545105 221.7969971,169.8164978 222.1869965,169.4524994 C222.5509949,169.8424988 222.9929962,170.2064972 223.5,170.5444946 C222.5899963,170.9735107 221.4589996,171.3114929 220.1199951,171.5455017 L220.5359955,172.2994995 C222.0180054,171.9745026 223.253006,171.5455017 224.2539978,171.0124969 C225.1640015,171.5195007 226.2429962,171.9355011 227.5039978,172.2734985 L227.9980011,171.5715027 C226.8800049,171.3114929 225.8919983,170.9605103 225.0209961,170.5444946 C225.7620087,170.0245056 226.3079987,169.4134979 226.6719971,168.7245026 L226.6719971,168.0744934 L223.2400055,168.0744934 C223.3699951,167.8404999 223.473999,167.6065063 223.5780029,167.3594971 Z M224.2539978,170.14151 C223.6560059,169.7774963 223.1230011,169.3745117 222.6679993,168.9324951 C222.6940002,168.8804932 222.7330017,168.8284912 222.7850037,168.7764893 L225.7360077,168.7764893 C225.3849945,169.2965088 224.8910065,169.7514954 224.2539978,170.14151 Z M221.6800079,173.638504 L221.3159943,174.3404999 C223.0579987,174.6784973 224.7350006,175.1595001 226.3470001,175.7835083 L226.6589966,175.0295105 C225.072998,174.4315033 223.4089966,173.963501 221.6800079,173.638504 Z M223.0319977,171.818512 L222.6029968,172.4425049 C223.5650024,172.7545013 224.4880066,173.1705017 225.3849945,173.7164917 L225.8269958,173.0404968 C224.9819946,172.5725098 224.0460052,172.1564941 223.0319977,171.818512 Z M229.2980042,166.1374969 L218.6900024,166.1374969 L218.6900024,177.4865112 L219.6000061,177.4865112 L219.6000061,176.9534912 L228.3880005,176.9534912 L228.3880005,177.4865112 L229.2980042,177.4865112 Z M219.6000061,176.1214905 L219.6000061,166.9694977 L228.3880005,166.9694977 L228.3880005,176.1214905 Z M230.4940033,176.1864929" style="fill:rgb(48,48,48);stroke:none" clip-path="url(#clip24)" />
</svg>
